<svg width="27" height="27" viewBox="0 0 27 27" fill="none" xmlns="http://www.w3.org/2000/svg">
<path fill-rule="evenodd" clip-rule="evenodd" d="M13.5823 0L14.4575 2.03558C15.4474 4.33802 17.5792 5.92364 19.3442 7.70294C21.1611 9.53447 22.7701 11.7637 25.1401 12.7827L27 13.5823L24.932 14.4714C22.6501 15.4525 21.077 17.5644 19.3207 19.3207C17.5644 21.077 15.4525 22.6501 14.4714 24.932L13.5823 27L12.7827 25.1401C11.7637 22.7701 9.53447 21.1611 7.70294 19.3442C5.92365 17.5792 4.33802 15.4474 2.03558 14.4575L0 13.5823L1.82744 12.7966C4.21803 11.7688 5.83929 9.51932 7.6793 7.67931C9.51932 5.83929 11.7688 4.21803 12.7966 1.82744L13.5823 0ZM13.5 21.0732C17.6825 21.0732 21.0732 17.6825 21.0732 13.5C21.0732 9.31745 17.6825 5.92683 13.5 5.92683C9.31745 5.92683 5.92683 9.31745 5.92683 13.5C5.92683 17.6825 9.31745 21.0732 13.5 21.0732Z" fill="url(#paint0_linear_0_85)"/>
<defs>
<linearGradient id="paint0_linear_0_85" x1="5.65487" y1="3.37669" x2="21.3602" y2="22.4779" gradientUnits="userSpaceOnUse">
<stop stop-color="#ECD78D"/>
<stop offset="0.442708" stop-color="#F8F3C9"/>
<stop offset="1" stop-color="#F09965"/>
</linearGradient>
</defs>
</svg>
